<svg version="1.1" viewBox="0.0 0.0 132.9448818897638 189.51706036745406" fill="none" stroke="none" stroke-linecap="square" stroke-miterlimit="10" xmlns:xlink="http://www.w3.org/1999/xlink" xmlns="http://www.w3.org/2000/svg"><clipPath id="p.0"><path d="m0 0l132.94489 0l0 189.51706l-132.94489 0l0 -189.51706z" clip-rule="nonzero"/></clipPath><g clip-path="url(#p.0)"><path fill="#000000" fill-opacity="0.0" d="m0 0l132.94489 0l0 189.51706l-132.94489 0z" fill-rule="evenodd"/><path fill="#1e88e5" d="m121.322296 0.2519685c-3.6115494 0 -7.0761185 1.687664 -8.664047 4.5511813l-104.3937 133.72441c-2.1574802 2.5879211 -3.8818898 5.1758575 -5.175853 8.196854c-6.9028873 16.391068 3.0183728 34.939636 21.569553 40.548553c4.062992 1.3543396 8.191603 1.9921265 12.23097 1.9921265c13.965881 0 26.845146 -7.632538 32.19948 -19.679794l62.118103 -155.72441l0.43045044 -1.2939634c2.157486 -4.7454066 -0.86351013 -9.92126 -6.469818 -11.6482935c-1.2493439 -0.45406827 -2.556427 -0.6666667 -3.8451385 -0.6666667z" fill-rule="evenodd"/></g></svg>